<?xml version="1.0" encoding="UTF-8" standalone="no"?>
<!DOCTYPE svg PUBLIC "-//W3C//DTD SVG 1.1//EN"
 "http://www.w3.org/Graphics/SVG/1.1/DTD/svg11.dtd">
<!-- Generated by graphviz version 2.30.1 (20130616.2213)
 -->
<!-- Title: controllers_diagram Pages: 1 -->
<svg width="1795pt" height="1863pt"
 viewBox="0.00 0.00 1795.00 1863.00" xmlns="http://www.w3.org/2000/svg" xmlns:xlink="http://www.w3.org/1999/xlink">
<g id="graph0" class="graph" transform="scale(1 1) rotate(0) translate(4 1859)">
<title>controllers_diagram</title>
<polygon fill="white" stroke="white" points="-4,5 -4,-1859 1792,-1859 1792,5 -4,5"/>
<!-- _diagram_info -->
<g id="node1" class="node"><title>_diagram_info</title>
<text text-anchor="start" x="1463" y="-257.6" font-family="Times,serif" font-size="13.00">Controllers diagram</text>
<text text-anchor="start" x="1463" y="-243.6" font-family="Times,serif" font-size="13.00">Date: Jun 16 2013 &#45; 19:01</text>
<text text-anchor="start" x="1463" y="-229.6" font-family="Times,serif" font-size="13.00">Migration version: 20130430221108</text>
<text text-anchor="start" x="1463" y="-215.6" font-family="Times,serif" font-size="13.00">Generated by RailRoady 1.1.0</text>
<text text-anchor="start" x="1463" y="-201.6" font-family="Times,serif" font-size="13.00">http://railroady.prestonlee.com</text>
</g>
<!-- AnswersController -->
<g id="node2" class="node"><title>AnswersController</title>
<path fill="none" stroke="black" d="M23.2397,-567.785C23.2397,-567.785 127.24,-567.785 127.24,-567.785 133.24,-567.785 139.24,-573.785 139.24,-579.785 139.24,-579.785 139.24,-738.785 139.24,-738.785 139.24,-744.785 133.24,-750.785 127.24,-750.785 127.24,-750.785 23.2397,-750.785 23.2397,-750.785 17.2397,-750.785 11.2397,-744.785 11.2397,-738.785 11.2397,-738.785 11.2397,-579.785 11.2397,-579.785 11.2397,-573.785 17.2397,-567.785 23.2397,-567.785"/>
<text text-anchor="middle" x="75.2397" y="-735.585" font-family="Times,serif" font-size="14.00">AnswersController</text>
<polyline fill="none" stroke="black" points="11.2397,-727.785 139.24,-727.785 "/>
<text text-anchor="start" x="19.2397" y="-712.585" font-family="Times,serif" font-size="14.00">create</text>
<text text-anchor="start" x="19.2397" y="-697.585" font-family="Times,serif" font-size="14.00">destroy</text>
<text text-anchor="start" x="19.2397" y="-682.585" font-family="Times,serif" font-size="14.00">edit</text>
<text text-anchor="start" x="19.2397" y="-667.585" font-family="Times,serif" font-size="14.00">index</text>
<text text-anchor="start" x="19.2397" y="-652.585" font-family="Times,serif" font-size="14.00">new</text>
<text text-anchor="start" x="19.2397" y="-637.585" font-family="Times,serif" font-size="14.00">show</text>
<text text-anchor="start" x="19.2397" y="-622.585" font-family="Times,serif" font-size="14.00">update</text>
<polyline fill="none" stroke="black" points="11.2397,-614.785 139.24,-614.785 "/>
<polyline fill="none" stroke="black" points="11.2397,-590.785 139.24,-590.785 "/>
<text text-anchor="start" x="19.2397" y="-575.585" font-family="Times,serif" font-size="14.00">_layout</text>
</g>
<!-- ApplicationController -->
<g id="node3" class="node"><title>ApplicationController</title>
<path fill="none" stroke="black" d="M770.263,-847.251C770.263,-847.251 955.263,-847.251 955.263,-847.251 961.263,-847.251 967.263,-853.251 967.263,-859.251 967.263,-859.251 967.263,-988.251 967.263,-988.251 967.263,-994.251 961.263,-1000.25 955.263,-1000.25 955.263,-1000.25 770.263,-1000.25 770.263,-1000.25 764.263,-1000.25 758.263,-994.251 758.263,-988.251 758.263,-988.251 758.263,-859.251 758.263,-859.251 758.263,-853.251 764.263,-847.251 770.263,-847.251"/>
<text text-anchor="middle" x="862.763" y="-985.051" font-family="Times,serif" font-size="14.00">ApplicationController</text>
<polyline fill="none" stroke="black" points="758.263,-977.251 967.263,-977.251 "/>
<text text-anchor="start" x="766.263" y="-962.051" font-family="Times,serif" font-size="14.00">_one_time_conditions_valid_90?</text>
<text text-anchor="start" x="766.263" y="-947.051" font-family="Times,serif" font-size="14.00">after_sign_in_path_for</text>
<text text-anchor="start" x="766.263" y="-932.051" font-family="Times,serif" font-size="14.00">require_login</text>
<polyline fill="none" stroke="black" points="758.263,-924.251 967.263,-924.251 "/>
<polyline fill="none" stroke="black" points="758.263,-900.251 967.263,-900.251 "/>
<text text-anchor="start" x="766.263" y="-885.051" font-family="Times,serif" font-size="14.00">_layout</text>
<text text-anchor="start" x="766.263" y="-870.051" font-family="Times,serif" font-size="14.00">authenticate_in_production</text>
<text text-anchor="start" x="766.263" y="-855.051" font-family="Times,serif" font-size="14.00">layout_by_resource</text>
</g>
<!-- ApplicationController&#45;&gt;AnswersController -->
<g id="edge1" class="edge"><title>ApplicationController&#45;&gt;AnswersController</title>
<path fill="none" stroke="black" d="M758.027,-922.198C632.498,-916.614 418.554,-895.063 254.399,-816.325 211.512,-795.754 171.002,-761.975 139.388,-731.005"/>
</g>
<!-- BusinessSectorsController -->
<g id="node4" class="node"><title>BusinessSectorsController</title>
<path fill="none" stroke="black" d="M675.514,-0.5C675.514,-0.5 820.514,-0.5 820.514,-0.5 826.514,-0.5 832.514,-6.5 832.514,-12.5 832.514,-12.5 832.514,-171.5 832.514,-171.5 832.514,-177.5 826.514,-183.5 820.514,-183.5 820.514,-183.5 675.514,-183.5 675.514,-183.5 669.514,-183.5 663.514,-177.5 663.514,-171.5 663.514,-171.5 663.514,-12.5 663.514,-12.5 663.514,-6.5 669.514,-0.5 675.514,-0.5"/>
<text text-anchor="middle" x="748.014" y="-168.3" font-family="Times,serif" font-size="14.00">BusinessSectorsController</text>
<polyline fill="none" stroke="black" points="663.514,-160.5 832.514,-160.5 "/>
<text text-anchor="start" x="671.514" y="-145.3" font-family="Times,serif" font-size="14.00">create</text>
<text text-anchor="start" x="671.514" y="-130.3" font-family="Times,serif" font-size="14.00">destroy</text>
<text text-anchor="start" x="671.514" y="-115.3" font-family="Times,serif" font-size="14.00">edit</text>
<text text-anchor="start" x="671.514" y="-100.3" font-family="Times,serif" font-size="14.00">index</text>
<text text-anchor="start" x="671.514" y="-85.3" font-family="Times,serif" font-size="14.00">new</text>
<text text-anchor="start" x="671.514" y="-70.3" font-family="Times,serif" font-size="14.00">show</text>
<text text-anchor="start" x="671.514" y="-55.3" font-family="Times,serif" font-size="14.00">update</text>
<polyline fill="none" stroke="black" points="663.514,-47.5 832.514,-47.5 "/>
<polyline fill="none" stroke="black" points="663.514,-23.5 832.514,-23.5 "/>
<text text-anchor="start" x="671.514" y="-8.3" font-family="Times,serif" font-size="14.00">_layout</text>
</g>
<!-- ApplicationController&#45;&gt;BusinessSectorsController -->
<g id="edge2" class="edge"><title>ApplicationController&#45;&gt;BusinessSectorsController</title>
<path fill="none" stroke="black" d="M852.173,-846.992C830.979,-693.366 783.43,-348.708 760.65,-183.591"/>
</g>
<!-- CandidateAppsController -->
<g id="node5" class="node"><title>CandidateAppsController</title>
<path fill="none" stroke="black" d="M803.755,-1654.09C803.755,-1654.09 944.755,-1654.09 944.755,-1654.09 950.755,-1654.09 956.755,-1660.09 956.755,-1666.09 956.755,-1666.09 956.755,-1825.09 956.755,-1825.09 956.755,-1831.09 950.755,-1837.09 944.755,-1837.09 944.755,-1837.09 803.755,-1837.09 803.755,-1837.09 797.755,-1837.09 791.755,-1831.09 791.755,-1825.09 791.755,-1825.09 791.755,-1666.09 791.755,-1666.09 791.755,-1660.09 797.755,-1654.09 803.755,-1654.09"/>
<text text-anchor="middle" x="874.255" y="-1821.89" font-family="Times,serif" font-size="14.00">CandidateAppsController</text>
<polyline fill="none" stroke="black" points="791.755,-1814.09 956.755,-1814.09 "/>
<text text-anchor="start" x="799.755" y="-1798.89" font-family="Times,serif" font-size="14.00">create</text>
<text text-anchor="start" x="799.755" y="-1783.89" font-family="Times,serif" font-size="14.00">destroy</text>
<text text-anchor="start" x="799.755" y="-1768.89" font-family="Times,serif" font-size="14.00">edit</text>
<text text-anchor="start" x="799.755" y="-1753.89" font-family="Times,serif" font-size="14.00">index</text>
<text text-anchor="start" x="799.755" y="-1738.89" font-family="Times,serif" font-size="14.00">new</text>
<text text-anchor="start" x="799.755" y="-1723.89" font-family="Times,serif" font-size="14.00">show</text>
<text text-anchor="start" x="799.755" y="-1708.89" font-family="Times,serif" font-size="14.00">update</text>
<polyline fill="none" stroke="black" points="791.755,-1701.09 956.755,-1701.09 "/>
<polyline fill="none" stroke="black" points="791.755,-1677.09 956.755,-1677.09 "/>
<text text-anchor="start" x="799.755" y="-1661.89" font-family="Times,serif" font-size="14.00">_layout</text>
</g>
<!-- ApplicationController&#45;&gt;CandidateAppsController -->
<g id="edge3" class="edge"><title>ApplicationController&#45;&gt;CandidateAppsController</title>
<path fill="none" stroke="black" d="M863.834,-1000.33C865.957,-1152.15 870.691,-1490.7 872.974,-1654.01"/>
</g>
<!-- CandidatesCertificationsController -->
<g id="node6" class="node"><title>CandidatesCertificationsController</title>
<path fill="none" stroke="black" d="M1391.74,-1106.47C1391.74,-1106.47 1583.74,-1106.47 1583.74,-1106.47 1589.74,-1106.47 1595.74,-1112.47 1595.74,-1118.47 1595.74,-1118.47 1595.74,-1277.47 1595.74,-1277.47 1595.74,-1283.47 1589.74,-1289.47 1583.74,-1289.47 1583.74,-1289.47 1391.74,-1289.47 1391.74,-1289.47 1385.74,-1289.47 1379.74,-1283.47 1379.74,-1277.47 1379.74,-1277.47 1379.74,-1118.47 1379.74,-1118.47 1379.74,-1112.47 1385.74,-1106.47 1391.74,-1106.47"/>
<text text-anchor="middle" x="1487.74" y="-1274.27" font-family="Times,serif" font-size="14.00">CandidatesCertificationsController</text>
<polyline fill="none" stroke="black" points="1379.74,-1266.47 1595.74,-1266.47 "/>
<text text-anchor="start" x="1387.74" y="-1251.27" font-family="Times,serif" font-size="14.00">create</text>
<text text-anchor="start" x="1387.74" y="-1236.27" font-family="Times,serif" font-size="14.00">destroy</text>
<text text-anchor="start" x="1387.74" y="-1221.27" font-family="Times,serif" font-size="14.00">edit</text>
<text text-anchor="start" x="1387.74" y="-1206.27" font-family="Times,serif" font-size="14.00">index</text>
<text text-anchor="start" x="1387.74" y="-1191.27" font-family="Times,serif" font-size="14.00">new</text>
<text text-anchor="start" x="1387.74" y="-1176.27" font-family="Times,serif" font-size="14.00">show</text>
<text text-anchor="start" x="1387.74" y="-1161.27" font-family="Times,serif" font-size="14.00">update</text>
<polyline fill="none" stroke="black" points="1379.74,-1153.47 1595.74,-1153.47 "/>
<polyline fill="none" stroke="black" points="1379.74,-1129.47 1595.74,-1129.47 "/>
<text text-anchor="start" x="1387.74" y="-1114.27" font-family="Times,serif" font-size="14.00">_layout</text>
</g>
<!-- ApplicationController&#45;&gt;CandidatesCertificationsController -->
<g id="edge4" class="edge"><title>ApplicationController&#45;&gt;CandidatesCertificationsController</title>
<path fill="none" stroke="black" d="M967.37,-969.649C1081.7,-1019.81 1263.96,-1099.78 1379.65,-1150.54"/>
</g>
<!-- CandidatesController -->
<g id="node7" class="node"><title>CandidatesController</title>
<path fill="none" stroke="black" d="M449.811,-1186.11C449.811,-1186.11 565.811,-1186.11 565.811,-1186.11 571.811,-1186.11 577.811,-1192.11 577.811,-1198.11 577.811,-1198.11 577.811,-1327.11 577.811,-1327.11 577.811,-1333.11 571.811,-1339.11 565.811,-1339.11 565.811,-1339.11 449.811,-1339.11 449.811,-1339.11 443.811,-1339.11 437.811,-1333.11 437.811,-1327.11 437.811,-1327.11 437.811,-1198.11 437.811,-1198.11 437.811,-1192.11 443.811,-1186.11 449.811,-1186.11"/>
<text text-anchor="middle" x="507.811" y="-1323.91" font-family="Times,serif" font-size="14.00">CandidatesController</text>
<polyline fill="none" stroke="black" points="437.811,-1316.11 577.811,-1316.11 "/>
<text text-anchor="start" x="445.811" y="-1300.91" font-family="Times,serif" font-size="14.00">create</text>
<text text-anchor="start" x="445.811" y="-1285.91" font-family="Times,serif" font-size="14.00">edit</text>
<text text-anchor="start" x="445.811" y="-1270.91" font-family="Times,serif" font-size="14.00">index</text>
<text text-anchor="start" x="445.811" y="-1255.91" font-family="Times,serif" font-size="14.00">new</text>
<text text-anchor="start" x="445.811" y="-1240.91" font-family="Times,serif" font-size="14.00">update</text>
<polyline fill="none" stroke="black" points="437.811,-1233.11 577.811,-1233.11 "/>
<polyline fill="none" stroke="black" points="437.811,-1209.11 577.811,-1209.11 "/>
<text text-anchor="start" x="445.811" y="-1193.91" font-family="Times,serif" font-size="14.00">_layout</text>
</g>
<!-- ApplicationController&#45;&gt;CandidatesController -->
<g id="edge5" class="edge"><title>ApplicationController&#45;&gt;CandidatesController</title>
<path fill="none" stroke="black" d="M782.219,-1000.64C720.651,-1059.42 636.634,-1139.63 577.842,-1195.75"/>
</g>
<!-- CategoriesController -->
<g id="node8" class="node"><title>CategoriesController</title>
<path fill="none" stroke="black" d="M227.709,-237.598C227.709,-237.598 340.709,-237.598 340.709,-237.598 346.709,-237.598 352.709,-243.598 352.709,-249.598 352.709,-249.598 352.709,-408.598 352.709,-408.598 352.709,-414.598 346.709,-420.598 340.709,-420.598 340.709,-420.598 227.709,-420.598 227.709,-420.598 221.709,-420.598 215.709,-414.598 215.709,-408.598 215.709,-408.598 215.709,-249.598 215.709,-249.598 215.709,-243.598 221.709,-237.598 227.709,-237.598"/>
<text text-anchor="middle" x="284.209" y="-405.398" font-family="Times,serif" font-size="14.00">CategoriesController</text>
<polyline fill="none" stroke="black" points="215.709,-397.598 352.709,-397.598 "/>
<text text-anchor="start" x="223.709" y="-382.398" font-family="Times,serif" font-size="14.00">create</text>
<text text-anchor="start" x="223.709" y="-367.398" font-family="Times,serif" font-size="14.00">destroy</text>
<text text-anchor="start" x="223.709" y="-352.398" font-family="Times,serif" font-size="14.00">edit</text>
<text text-anchor="start" x="223.709" y="-337.398" font-family="Times,serif" font-size="14.00">index</text>
<text text-anchor="start" x="223.709" y="-322.398" font-family="Times,serif" font-size="14.00">new</text>
<text text-anchor="start" x="223.709" y="-307.398" font-family="Times,serif" font-size="14.00">show</text>
<text text-anchor="start" x="223.709" y="-292.398" font-family="Times,serif" font-size="14.00">update</text>
<polyline fill="none" stroke="black" points="215.709,-284.598 352.709,-284.598 "/>
<polyline fill="none" stroke="black" points="215.709,-260.598 352.709,-260.598 "/>
<text text-anchor="start" x="223.709" y="-245.398" font-family="Times,serif" font-size="14.00">_layout</text>
</g>
<!-- ApplicationController&#45;&gt;CategoriesController -->
<g id="edge6" class="edge"><title>ApplicationController&#45;&gt;CategoriesController</title>
<path fill="none" stroke="black" d="M788.311,-847.228C675.391,-731.165 462.417,-512.265 352.969,-399.772"/>
</g>
<!-- CertificationsController -->
<g id="node9" class="node"><title>CertificationsController</title>
<path fill="none" stroke="black" d="M1561.48,-641.118C1561.48,-641.118 1690.48,-641.118 1690.48,-641.118 1696.48,-641.118 1702.48,-647.118 1702.48,-653.118 1702.48,-653.118 1702.48,-812.118 1702.48,-812.118 1702.48,-818.118 1696.48,-824.118 1690.48,-824.118 1690.48,-824.118 1561.48,-824.118 1561.48,-824.118 1555.48,-824.118 1549.48,-818.118 1549.48,-812.118 1549.48,-812.118 1549.48,-653.118 1549.48,-653.118 1549.48,-647.118 1555.48,-641.118 1561.48,-641.118"/>
<text text-anchor="middle" x="1625.98" y="-808.918" font-family="Times,serif" font-size="14.00">CertificationsController</text>
<polyline fill="none" stroke="black" points="1549.48,-801.118 1702.48,-801.118 "/>
<text text-anchor="start" x="1557.48" y="-785.918" font-family="Times,serif" font-size="14.00">create</text>
<text text-anchor="start" x="1557.48" y="-770.918" font-family="Times,serif" font-size="14.00">destroy</text>
<text text-anchor="start" x="1557.48" y="-755.918" font-family="Times,serif" font-size="14.00">edit</text>
<text text-anchor="start" x="1557.48" y="-740.918" font-family="Times,serif" font-size="14.00">index</text>
<text text-anchor="start" x="1557.48" y="-725.918" font-family="Times,serif" font-size="14.00">new</text>
<text text-anchor="start" x="1557.48" y="-710.918" font-family="Times,serif" font-size="14.00">show</text>
<text text-anchor="start" x="1557.48" y="-695.918" font-family="Times,serif" font-size="14.00">update</text>
<polyline fill="none" stroke="black" points="1549.48,-688.118 1702.48,-688.118 "/>
<polyline fill="none" stroke="black" points="1549.48,-664.118 1702.48,-664.118 "/>
<text text-anchor="start" x="1557.48" y="-648.918" font-family="Times,serif" font-size="14.00">_layout</text>
</g>
<!-- ApplicationController&#45;&gt;CertificationsController -->
<g id="edge7" class="edge"><title>ApplicationController&#45;&gt;CertificationsController</title>
<path fill="none" stroke="black" d="M967.284,-897.575C1122.83,-858.622 1411.63,-786.298 1549.23,-751.838"/>
</g>
<!-- ConcentrationsController -->
<g id="node10" class="node"><title>ConcentrationsController</title>
<path fill="none" stroke="black" d="M495.292,-237.504C495.292,-237.504 635.292,-237.504 635.292,-237.504 641.292,-237.504 647.292,-243.504 647.292,-249.504 647.292,-249.504 647.292,-408.504 647.292,-408.504 647.292,-414.504 641.292,-420.504 635.292,-420.504 635.292,-420.504 495.292,-420.504 495.292,-420.504 489.292,-420.504 483.292,-414.504 483.292,-408.504 483.292,-408.504 483.292,-249.504 483.292,-249.504 483.292,-243.504 489.292,-237.504 495.292,-237.504"/>
<text text-anchor="middle" x="565.292" y="-405.304" font-family="Times,serif" font-size="14.00">ConcentrationsController</text>
<polyline fill="none" stroke="black" points="483.292,-397.504 647.292,-397.504 "/>
<text text-anchor="start" x="491.292" y="-382.304" font-family="Times,serif" font-size="14.00">create</text>
<text text-anchor="start" x="491.292" y="-367.304" font-family="Times,serif" font-size="14.00">destroy</text>
<text text-anchor="start" x="491.292" y="-352.304" font-family="Times,serif" font-size="14.00">edit</text>
<text text-anchor="start" x="491.292" y="-337.304" font-family="Times,serif" font-size="14.00">index</text>
<text text-anchor="start" x="491.292" y="-322.304" font-family="Times,serif" font-size="14.00">new</text>
<text text-anchor="start" x="491.292" y="-307.304" font-family="Times,serif" font-size="14.00">show</text>
<text text-anchor="start" x="491.292" y="-292.304" font-family="Times,serif" font-size="14.00">update</text>
<polyline fill="none" stroke="black" points="483.292,-284.504 647.292,-284.504 "/>
<polyline fill="none" stroke="black" points="483.292,-260.504 647.292,-260.504 "/>
<text text-anchor="start" x="491.292" y="-245.304" font-family="Times,serif" font-size="14.00">_layout</text>
</g>
<!-- ApplicationController&#45;&gt;ConcentrationsController -->
<g id="edge8" class="edge"><title>ApplicationController&#45;&gt;ConcentrationsController</title>
<path fill="none" stroke="black" d="M824.483,-847.216C769.836,-737.958 669.617,-537.584 611.101,-420.591"/>
</g>
<!-- CorrectAnswersController -->
<g id="node11" class="node"><title>CorrectAnswersController</title>
<path fill="none" stroke="black" d="M1161.03,-106.588C1161.03,-106.588 1308.03,-106.588 1308.03,-106.588 1314.03,-106.588 1320.03,-112.588 1320.03,-118.588 1320.03,-118.588 1320.03,-277.588 1320.03,-277.588 1320.03,-283.588 1314.03,-289.588 1308.03,-289.588 1308.03,-289.588 1161.03,-289.588 1161.03,-289.588 1155.03,-289.588 1149.03,-283.588 1149.03,-277.588 1149.03,-277.588 1149.03,-118.588 1149.03,-118.588 1149.03,-112.588 1155.03,-106.588 1161.03,-106.588"/>
<text text-anchor="middle" x="1234.53" y="-274.388" font-family="Times,serif" font-size="14.00">CorrectAnswersController</text>
<polyline fill="none" stroke="black" points="1149.03,-266.588 1320.03,-266.588 "/>
<text text-anchor="start" x="1157.03" y="-251.388" font-family="Times,serif" font-size="14.00">create</text>
<text text-anchor="start" x="1157.03" y="-236.388" font-family="Times,serif" font-size="14.00">destroy</text>
<text text-anchor="start" x="1157.03" y="-221.388" font-family="Times,serif" font-size="14.00">edit</text>
<text text-anchor="start" x="1157.03" y="-206.388" font-family="Times,serif" font-size="14.00">index</text>
<text text-anchor="start" x="1157.03" y="-191.388" font-family="Times,serif" font-size="14.00">new</text>
<text text-anchor="start" x="1157.03" y="-176.388" font-family="Times,serif" font-size="14.00">show</text>
<text text-anchor="start" x="1157.03" y="-161.388" font-family="Times,serif" font-size="14.00">update</text>
<polyline fill="none" stroke="black" points="1149.03,-153.588 1320.03,-153.588 "/>
<polyline fill="none" stroke="black" points="1149.03,-129.588 1320.03,-129.588 "/>
<text text-anchor="start" x="1157.03" y="-114.388" font-family="Times,serif" font-size="14.00">_layout</text>
</g>
<!-- ApplicationController&#45;&gt;CorrectAnswersController -->
<g id="edge9" class="edge"><title>ApplicationController&#45;&gt;CorrectAnswersController</title>
<path fill="none" stroke="black" d="M902.021,-847.122C970.988,-712.503 1113.59,-434.157 1187.62,-289.646"/>
</g>
<!-- DegreesController -->
<g id="node12" class="node"><title>DegreesController</title>
<path fill="none" stroke="black" d="M908.841,-187.631C908.841,-187.631 1007.84,-187.631 1007.84,-187.631 1013.84,-187.631 1019.84,-193.631 1019.84,-199.631 1019.84,-199.631 1019.84,-358.631 1019.84,-358.631 1019.84,-364.631 1013.84,-370.631 1007.84,-370.631 1007.84,-370.631 908.841,-370.631 908.841,-370.631 902.841,-370.631 896.841,-364.631 896.841,-358.631 896.841,-358.631 896.841,-199.631 896.841,-199.631 896.841,-193.631 902.841,-187.631 908.841,-187.631"/>
<text text-anchor="middle" x="958.341" y="-355.431" font-family="Times,serif" font-size="14.00">DegreesController</text>
<polyline fill="none" stroke="black" points="896.841,-347.631 1019.84,-347.631 "/>
<text text-anchor="start" x="904.841" y="-332.431" font-family="Times,serif" font-size="14.00">create</text>
<text text-anchor="start" x="904.841" y="-317.431" font-family="Times,serif" font-size="14.00">destroy</text>
<text text-anchor="start" x="904.841" y="-302.431" font-family="Times,serif" font-size="14.00">edit</text>
<text text-anchor="start" x="904.841" y="-287.431" font-family="Times,serif" font-size="14.00">index</text>
<text text-anchor="start" x="904.841" y="-272.431" font-family="Times,serif" font-size="14.00">new</text>
<text text-anchor="start" x="904.841" y="-257.431" font-family="Times,serif" font-size="14.00">show</text>
<text text-anchor="start" x="904.841" y="-242.431" font-family="Times,serif" font-size="14.00">update</text>
<polyline fill="none" stroke="black" points="896.841,-234.631 1019.84,-234.631 "/>
<polyline fill="none" stroke="black" points="896.841,-210.631 1019.84,-210.631 "/>
<text text-anchor="start" x="904.841" y="-195.431" font-family="Times,serif" font-size="14.00">_layout</text>
</g>
<!-- ApplicationController&#45;&gt;DegreesController -->
<g id="edge10" class="edge"><title>ApplicationController&#45;&gt;DegreesController</title>
<path fill="none" stroke="black" d="M874.149,-846.954C891.833,-727.688 925.828,-498.408 944.763,-370.705"/>
</g>
<!-- EducationsController -->
<g id="node13" class="node"><title>EducationsController</title>
<path fill="none" stroke="black" d="M12,-921.527C12,-921.527 128,-921.527 128,-921.527 134,-921.527 140,-927.527 140,-933.527 140,-933.527 140,-1047.53 140,-1047.53 140,-1053.53 134,-1059.53 128,-1059.53 128,-1059.53 12,-1059.53 12,-1059.53 6,-1059.53 0,-1053.53 0,-1047.53 0,-1047.53 0,-933.527 0,-933.527 0,-927.527 6,-921.527 12,-921.527"/>
<text text-anchor="middle" x="70" y="-1044.33" font-family="Times,serif" font-size="14.00">EducationsController</text>
<polyline fill="none" stroke="black" points="0,-1036.53 140,-1036.53 "/>
<text text-anchor="start" x="8" y="-1021.33" font-family="Times,serif" font-size="14.00">create</text>
<text text-anchor="start" x="8" y="-1006.33" font-family="Times,serif" font-size="14.00">destroy</text>
<text text-anchor="start" x="8" y="-991.327" font-family="Times,serif" font-size="14.00">new</text>
<text text-anchor="start" x="8" y="-976.327" font-family="Times,serif" font-size="14.00">update</text>
<polyline fill="none" stroke="black" points="0,-968.527 140,-968.527 "/>
<polyline fill="none" stroke="black" points="0,-944.527 140,-944.527 "/>
<text text-anchor="start" x="8" y="-929.327" font-family="Times,serif" font-size="14.00">_layout</text>
</g>
<!-- ApplicationController&#45;&gt;EducationsController -->
<g id="edge11" class="edge"><title>ApplicationController&#45;&gt;EducationsController</title>
<path fill="none" stroke="black" d="M757.899,-932.584C593.57,-946.426 279.753,-972.859 140.067,-984.626"/>
</g>
<!-- EmployersController -->
<g id="node14" class="node"><title>EmployersController</title>
<path fill="none" stroke="black" d="M1615.74,-933.699C1615.74,-933.699 1731.74,-933.699 1731.74,-933.699 1737.74,-933.699 1743.74,-939.699 1743.74,-945.699 1743.74,-945.699 1743.74,-1089.7 1743.74,-1089.7 1743.74,-1095.7 1737.74,-1101.7 1731.74,-1101.7 1731.74,-1101.7 1615.74,-1101.7 1615.74,-1101.7 1609.74,-1101.7 1603.74,-1095.7 1603.74,-1089.7 1603.74,-1089.7 1603.74,-945.699 1603.74,-945.699 1603.74,-939.699 1609.74,-933.699 1615.74,-933.699"/>
<text text-anchor="middle" x="1673.74" y="-1086.5" font-family="Times,serif" font-size="14.00">EmployersController</text>
<polyline fill="none" stroke="black" points="1603.74,-1078.7 1743.74,-1078.7 "/>
<text text-anchor="start" x="1611.74" y="-1063.5" font-family="Times,serif" font-size="14.00">create</text>
<text text-anchor="start" x="1611.74" y="-1048.5" font-family="Times,serif" font-size="14.00">edit</text>
<text text-anchor="start" x="1611.74" y="-1033.5" font-family="Times,serif" font-size="14.00">index</text>
<text text-anchor="start" x="1611.74" y="-1018.5" font-family="Times,serif" font-size="14.00">new</text>
<text text-anchor="start" x="1611.74" y="-1003.5" font-family="Times,serif" font-size="14.00">search</text>
<text text-anchor="start" x="1611.74" y="-988.499" font-family="Times,serif" font-size="14.00">update</text>
<polyline fill="none" stroke="black" points="1603.74,-980.699 1743.74,-980.699 "/>
<polyline fill="none" stroke="black" points="1603.74,-956.699 1743.74,-956.699 "/>
<text text-anchor="start" x="1611.74" y="-941.499" font-family="Times,serif" font-size="14.00">_layout</text>
</g>
<!-- ApplicationController&#45;&gt;EmployersController -->
<g id="edge12" class="edge"><title>ApplicationController&#45;&gt;EmployersController</title>
<path fill="none" stroke="black" d="M967.538,-935.888C1135.5,-955.346 1460.6,-993.007 1603.48,-1009.56"/>
</g>
<!-- ExperiencesController -->
<g id="node15" class="node"><title>ExperiencesController</title>
<path fill="none" stroke="black" d="M1417.74,-1423.34C1417.74,-1423.34 1539.74,-1423.34 1539.74,-1423.34 1545.74,-1423.34 1551.74,-1429.34 1551.74,-1435.34 1551.74,-1435.34 1551.74,-1534.34 1551.74,-1534.34 1551.74,-1540.34 1545.74,-1546.34 1539.74,-1546.34 1539.74,-1546.34 1417.74,-1546.34 1417.74,-1546.34 1411.74,-1546.34 1405.74,-1540.34 1405.74,-1534.34 1405.74,-1534.34 1405.74,-1435.34 1405.74,-1435.34 1405.74,-1429.34 1411.74,-1423.34 1417.74,-1423.34"/>
<text text-anchor="middle" x="1478.74" y="-1531.14" font-family="Times,serif" font-size="14.00">ExperiencesController</text>
<polyline fill="none" stroke="black" points="1405.74,-1523.34 1551.74,-1523.34 "/>
<text text-anchor="start" x="1413.74" y="-1508.14" font-family="Times,serif" font-size="14.00">create</text>
<text text-anchor="start" x="1413.74" y="-1493.14" font-family="Times,serif" font-size="14.00">new</text>
<text text-anchor="start" x="1413.74" y="-1478.14" font-family="Times,serif" font-size="14.00">show</text>
<polyline fill="none" stroke="black" points="1405.74,-1470.34 1551.74,-1470.34 "/>
<polyline fill="none" stroke="black" points="1405.74,-1446.34 1551.74,-1446.34 "/>
<text text-anchor="start" x="1413.74" y="-1431.14" font-family="Times,serif" font-size="14.00">_layout</text>
</g>
<!-- ApplicationController&#45;&gt;ExperiencesController -->
<g id="edge13" class="edge"><title>ApplicationController&#45;&gt;ExperiencesController</title>
<path fill="none" stroke="black" d="M946.798,-1000.3C1070.09,-1112.61 1297.61,-1319.86 1410.93,-1423.07"/>
</g>
<!-- ImportancesController -->
<g id="node16" class="node"><title>ImportancesController</title>
<path fill="none" stroke="black" d="M1127.7,-1582.18C1127.7,-1582.18 1250.7,-1582.18 1250.7,-1582.18 1256.7,-1582.18 1262.7,-1588.18 1262.7,-1594.18 1262.7,-1594.18 1262.7,-1753.18 1262.7,-1753.18 1262.7,-1759.18 1256.7,-1765.18 1250.7,-1765.18 1250.7,-1765.18 1127.7,-1765.18 1127.7,-1765.18 1121.7,-1765.18 1115.7,-1759.18 1115.7,-1753.18 1115.7,-1753.18 1115.7,-1594.18 1115.7,-1594.18 1115.7,-1588.18 1121.7,-1582.18 1127.7,-1582.18"/>
<text text-anchor="middle" x="1189.2" y="-1749.98" font-family="Times,serif" font-size="14.00">ImportancesController</text>
<polyline fill="none" stroke="black" points="1115.7,-1742.18 1262.7,-1742.18 "/>
<text text-anchor="start" x="1123.7" y="-1726.98" font-family="Times,serif" font-size="14.00">create</text>
<text text-anchor="start" x="1123.7" y="-1711.98" font-family="Times,serif" font-size="14.00">destroy</text>
<text text-anchor="start" x="1123.7" y="-1696.98" font-family="Times,serif" font-size="14.00">edit</text>
<text text-anchor="start" x="1123.7" y="-1681.98" font-family="Times,serif" font-size="14.00">index</text>
<text text-anchor="start" x="1123.7" y="-1666.98" font-family="Times,serif" font-size="14.00">new</text>
<text text-anchor="start" x="1123.7" y="-1651.98" font-family="Times,serif" font-size="14.00">show</text>
<text text-anchor="start" x="1123.7" y="-1636.98" font-family="Times,serif" font-size="14.00">update</text>
<polyline fill="none" stroke="black" points="1115.7,-1629.18 1262.7,-1629.18 "/>
<polyline fill="none" stroke="black" points="1115.7,-1605.18 1262.7,-1605.18 "/>
<text text-anchor="start" x="1123.7" y="-1589.98" font-family="Times,serif" font-size="14.00">_layout</text>
</g>
<!-- ApplicationController&#45;&gt;ImportancesController -->
<g id="edge14" class="edge"><title>ApplicationController&#45;&gt;ImportancesController</title>
<path fill="none" stroke="black" d="M875.548,-1000.56C895.149,-1105.94 938.579,-1299.27 1014.64,-1448.72 1041.32,-1501.15 1080.92,-1553.44 1115.66,-1594.4"/>
</g>
<!-- JobTitlesController -->
<g id="node17" class="node"><title>JobTitlesController</title>
<path fill="none" stroke="black" d="M1219.45,-524.14C1219.45,-524.14 1323.45,-524.14 1323.45,-524.14 1329.45,-524.14 1335.45,-530.14 1335.45,-536.14 1335.45,-536.14 1335.45,-695.14 1335.45,-695.14 1335.45,-701.14 1329.45,-707.14 1323.45,-707.14 1323.45,-707.14 1219.45,-707.14 1219.45,-707.14 1213.45,-707.14 1207.45,-701.14 1207.45,-695.14 1207.45,-695.14 1207.45,-536.14 1207.45,-536.14 1207.45,-530.14 1213.45,-524.14 1219.45,-524.14"/>
<text text-anchor="middle" x="1271.45" y="-691.94" font-family="Times,serif" font-size="14.00">JobTitlesController</text>
<polyline fill="none" stroke="black" points="1207.45,-684.14 1335.45,-684.14 "/>
<text text-anchor="start" x="1215.45" y="-668.94" font-family="Times,serif" font-size="14.00">create</text>
<text text-anchor="start" x="1215.45" y="-653.94" font-family="Times,serif" font-size="14.00">destroy</text>
<text text-anchor="start" x="1215.45" y="-638.94" font-family="Times,serif" font-size="14.00">edit</text>
<text text-anchor="start" x="1215.45" y="-623.94" font-family="Times,serif" font-size="14.00">index</text>
<text text-anchor="start" x="1215.45" y="-608.94" font-family="Times,serif" font-size="14.00">new</text>
<text text-anchor="start" x="1215.45" y="-593.94" font-family="Times,serif" font-size="14.00">show</text>
<text text-anchor="start" x="1215.45" y="-578.94" font-family="Times,serif" font-size="14.00">update</text>
<polyline fill="none" stroke="black" points="1207.45,-571.14 1335.45,-571.14 "/>
<polyline fill="none" stroke="black" points="1207.45,-547.14 1335.45,-547.14 "/>
<text text-anchor="start" x="1215.45" y="-531.94" font-family="Times,serif" font-size="14.00">_layout</text>
</g>
<!-- ApplicationController&#45;&gt;JobTitlesController -->
<g id="edge15" class="edge"><title>ApplicationController&#45;&gt;JobTitlesController</title>
<path fill="none" stroke="black" d="M964.312,-847.193C1040.43,-789.804 1142.29,-713.015 1207.4,-663.927"/>
</g>
<!-- MessagesController -->
<g id="node18" class="node"><title>MessagesController</title>
<path fill="none" stroke="black" d="M1457.49,-300.547C1457.49,-300.547 1564.49,-300.547 1564.49,-300.547 1570.49,-300.547 1576.49,-306.547 1576.49,-312.547 1576.49,-312.547 1576.49,-516.547 1576.49,-516.547 1576.49,-522.547 1570.49,-528.547 1564.49,-528.547 1564.49,-528.547 1457.49,-528.547 1457.49,-528.547 1451.49,-528.547 1445.49,-522.547 1445.49,-516.547 1445.49,-516.547 1445.49,-312.547 1445.49,-312.547 1445.49,-306.547 1451.49,-300.547 1457.49,-300.547"/>
<text text-anchor="middle" x="1510.99" y="-513.347" font-family="Times,serif" font-size="14.00">MessagesController</text>
<polyline fill="none" stroke="black" points="1445.49,-505.547 1576.49,-505.547 "/>
<text text-anchor="start" x="1453.49" y="-490.347" font-family="Times,serif" font-size="14.00">compose</text>
<text text-anchor="start" x="1453.49" y="-475.347" font-family="Times,serif" font-size="14.00">create</text>
<text text-anchor="start" x="1453.49" y="-460.347" font-family="Times,serif" font-size="14.00">destroy</text>
<text text-anchor="start" x="1453.49" y="-445.347" font-family="Times,serif" font-size="14.00">display</text>
<text text-anchor="start" x="1453.49" y="-430.347" font-family="Times,serif" font-size="14.00">edit</text>
<text text-anchor="start" x="1453.49" y="-415.347" font-family="Times,serif" font-size="14.00">inbox</text>
<text text-anchor="start" x="1453.49" y="-400.347" font-family="Times,serif" font-size="14.00">index</text>
<text text-anchor="start" x="1453.49" y="-385.347" font-family="Times,serif" font-size="14.00">new</text>
<text text-anchor="start" x="1453.49" y="-370.347" font-family="Times,serif" font-size="14.00">show</text>
<text text-anchor="start" x="1453.49" y="-355.347" font-family="Times,serif" font-size="14.00">update</text>
<polyline fill="none" stroke="black" points="1445.49,-347.547 1576.49,-347.547 "/>
<polyline fill="none" stroke="black" points="1445.49,-323.547 1576.49,-323.547 "/>
<text text-anchor="start" x="1453.49" y="-308.347" font-family="Times,serif" font-size="14.00">_layout</text>
</g>
<!-- ApplicationController&#45;&gt;MessagesController -->
<g id="edge16" class="edge"><title>ApplicationController&#45;&gt;MessagesController</title>
<path fill="none" stroke="black" d="M909.472,-846.948C967.917,-756.888 1076.06,-608.779 1204.25,-520.94 1278.65,-469.963 1379.87,-441.148 1445.32,-426.705"/>
</g>
<!-- PositionsController -->
<g id="node20" class="node"><title>PositionsController</title>
<path fill="none" stroke="black" d="M265.077,-1482.5C265.077,-1482.5 370.077,-1482.5 370.077,-1482.5 376.077,-1482.5 382.077,-1488.5 382.077,-1494.5 382.077,-1494.5 382.077,-1623.5 382.077,-1623.5 382.077,-1629.5 376.077,-1635.5 370.077,-1635.5 370.077,-1635.5 265.077,-1635.5 265.077,-1635.5 259.077,-1635.5 253.077,-1629.5 253.077,-1623.5 253.077,-1623.5 253.077,-1494.5 253.077,-1494.5 253.077,-1488.5 259.077,-1482.5 265.077,-1482.5"/>
<text text-anchor="middle" x="317.577" y="-1620.3" font-family="Times,serif" font-size="14.00">PositionsController</text>
<polyline fill="none" stroke="black" points="253.077,-1612.5 382.077,-1612.5 "/>
<text text-anchor="start" x="261.077" y="-1597.3" font-family="Times,serif" font-size="14.00">create</text>
<text text-anchor="start" x="261.077" y="-1582.3" font-family="Times,serif" font-size="14.00">destroy</text>
<text text-anchor="start" x="261.077" y="-1567.3" font-family="Times,serif" font-size="14.00">index</text>
<text text-anchor="start" x="261.077" y="-1552.3" font-family="Times,serif" font-size="14.00">new</text>
<text text-anchor="start" x="261.077" y="-1537.3" font-family="Times,serif" font-size="14.00">update</text>
<polyline fill="none" stroke="black" points="253.077,-1529.5 382.077,-1529.5 "/>
<polyline fill="none" stroke="black" points="253.077,-1505.5 382.077,-1505.5 "/>
<text text-anchor="start" x="261.077" y="-1490.3" font-family="Times,serif" font-size="14.00">_layout</text>
</g>
<!-- ApplicationController&#45;&gt;PositionsController -->
<g id="edge17" class="edge"><title>ApplicationController&#45;&gt;PositionsController</title>
<path fill="none" stroke="black" d="M820.399,-1000.29C769.844,-1088.04 679.67,-1233.71 581.011,-1342.31 520.285,-1409.16 438.426,-1473.26 382.161,-1514.16"/>
</g>
<!-- QuestionsController -->
<g id="node21" class="node"><title>QuestionsController</title>
<path fill="none" stroke="black" d="M41.5598,-1134.87C41.5598,-1134.87 234.56,-1134.87 234.56,-1134.87 240.56,-1134.87 246.56,-1140.87 246.56,-1146.87 246.56,-1146.87 246.56,-1395.87 246.56,-1395.87 246.56,-1401.87 240.56,-1407.87 234.56,-1407.87 234.56,-1407.87 41.5598,-1407.87 41.5598,-1407.87 35.5598,-1407.87 29.5598,-1401.87 29.5598,-1395.87 29.5598,-1395.87 29.5598,-1146.87 29.5598,-1146.87 29.5598,-1140.87 35.5598,-1134.87 41.5598,-1134.87"/>
<text text-anchor="middle" x="138.06" y="-1392.67" font-family="Times,serif" font-size="14.00">QuestionsController</text>
<polyline fill="none" stroke="black" points="29.5598,-1384.87 246.56,-1384.87 "/>
<text text-anchor="start" x="37.5598" y="-1369.67" font-family="Times,serif" font-size="14.00">_callback_before_539</text>
<text text-anchor="start" x="37.5598" y="-1354.67" font-family="Times,serif" font-size="14.00">_one_time_conditions_valid_540?</text>
<text text-anchor="start" x="37.5598" y="-1339.67" font-family="Times,serif" font-size="14.00">answer</text>
<text text-anchor="start" x="37.5598" y="-1324.67" font-family="Times,serif" font-size="14.00">answer_question</text>
<text text-anchor="start" x="37.5598" y="-1309.67" font-family="Times,serif" font-size="14.00">answers</text>
<text text-anchor="start" x="37.5598" y="-1294.67" font-family="Times,serif" font-size="14.00">create</text>
<text text-anchor="start" x="37.5598" y="-1279.67" font-family="Times,serif" font-size="14.00">destroy</text>
<text text-anchor="start" x="37.5598" y="-1264.67" font-family="Times,serif" font-size="14.00">edit</text>
<text text-anchor="start" x="37.5598" y="-1249.67" font-family="Times,serif" font-size="14.00">index</text>
<text text-anchor="start" x="37.5598" y="-1234.67" font-family="Times,serif" font-size="14.00">new</text>
<text text-anchor="start" x="37.5598" y="-1219.67" font-family="Times,serif" font-size="14.00">show</text>
<text text-anchor="start" x="37.5598" y="-1204.67" font-family="Times,serif" font-size="14.00">update</text>
<text text-anchor="start" x="37.5598" y="-1189.67" font-family="Times,serif" font-size="14.00">update_answer</text>
<polyline fill="none" stroke="black" points="29.5598,-1181.87 246.56,-1181.87 "/>
<polyline fill="none" stroke="black" points="29.5598,-1157.87 246.56,-1157.87 "/>
<text text-anchor="start" x="37.5598" y="-1142.67" font-family="Times,serif" font-size="14.00">_layout</text>
</g>
<!-- ApplicationController&#45;&gt;QuestionsController -->
<g id="edge18" class="edge"><title>ApplicationController&#45;&gt;QuestionsController</title>
<path fill="none" stroke="black" d="M758.159,-973.927C621.947,-1039.26 384.984,-1152.93 246.778,-1219.22"/>
</g>
<!-- SchoolsController -->
<g id="node23" class="node"><title>SchoolsController</title>
<path fill="none" stroke="black" d="M568.036,-1600.32C568.036,-1600.32 666.036,-1600.32 666.036,-1600.32 672.036,-1600.32 678.036,-1606.32 678.036,-1612.32 678.036,-1612.32 678.036,-1681.32 678.036,-1681.32 678.036,-1687.32 672.036,-1693.32 666.036,-1693.32 666.036,-1693.32 568.036,-1693.32 568.036,-1693.32 562.036,-1693.32 556.036,-1687.32 556.036,-1681.32 556.036,-1681.32 556.036,-1612.32 556.036,-1612.32 556.036,-1606.32 562.036,-1600.32 568.036,-1600.32"/>
<text text-anchor="middle" x="617.036" y="-1678.12" font-family="Times,serif" font-size="14.00">SchoolsController</text>
<polyline fill="none" stroke="black" points="556.036,-1670.32 678.036,-1670.32 "/>
<text text-anchor="start" x="564.036" y="-1655.12" font-family="Times,serif" font-size="14.00">index</text>
<polyline fill="none" stroke="black" points="556.036,-1647.32 678.036,-1647.32 "/>
<polyline fill="none" stroke="black" points="556.036,-1623.32 678.036,-1623.32 "/>
<text text-anchor="start" x="564.036" y="-1608.12" font-family="Times,serif" font-size="14.00">_layout</text>
</g>
<!-- ApplicationController&#45;&gt;SchoolsController -->
<g id="edge19" class="edge"><title>ApplicationController&#45;&gt;SchoolsController</title>
<path fill="none" stroke="black" d="M836.698,-1000.45C785.747,-1150.37 674.313,-1478.28 632.926,-1600.06"/>
</g>
<!-- UserBlocksController -->
<g id="node24" class="node"><title>UserBlocksController</title>
<path fill="none" stroke="black" d="M1029.84,-1262.52C1029.84,-1262.52 1148.84,-1262.52 1148.84,-1262.52 1154.84,-1262.52 1160.84,-1268.52 1160.84,-1274.52 1160.84,-1274.52 1160.84,-1433.52 1160.84,-1433.52 1160.84,-1439.52 1154.84,-1445.52 1148.84,-1445.52 1148.84,-1445.52 1029.84,-1445.52 1029.84,-1445.52 1023.84,-1445.52 1017.84,-1439.52 1017.84,-1433.52 1017.84,-1433.52 1017.84,-1274.52 1017.84,-1274.52 1017.84,-1268.52 1023.84,-1262.52 1029.84,-1262.52"/>
<text text-anchor="middle" x="1089.34" y="-1430.32" font-family="Times,serif" font-size="14.00">UserBlocksController</text>
<polyline fill="none" stroke="black" points="1017.84,-1422.52 1160.84,-1422.52 "/>
<text text-anchor="start" x="1025.84" y="-1407.32" font-family="Times,serif" font-size="14.00">create</text>
<text text-anchor="start" x="1025.84" y="-1392.32" font-family="Times,serif" font-size="14.00">destroy</text>
<text text-anchor="start" x="1025.84" y="-1377.32" font-family="Times,serif" font-size="14.00">edit</text>
<text text-anchor="start" x="1025.84" y="-1362.32" font-family="Times,serif" font-size="14.00">index</text>
<text text-anchor="start" x="1025.84" y="-1347.32" font-family="Times,serif" font-size="14.00">new</text>
<text text-anchor="start" x="1025.84" y="-1332.32" font-family="Times,serif" font-size="14.00">show</text>
<text text-anchor="start" x="1025.84" y="-1317.32" font-family="Times,serif" font-size="14.00">update</text>
<polyline fill="none" stroke="black" points="1017.84,-1309.52 1160.84,-1309.52 "/>
<polyline fill="none" stroke="black" points="1017.84,-1285.52 1160.84,-1285.52 "/>
<text text-anchor="start" x="1025.84" y="-1270.32" font-family="Times,serif" font-size="14.00">_layout</text>
</g>
<!-- ApplicationController&#45;&gt;UserBlocksController -->
<g id="edge20" class="edge"><title>ApplicationController&#45;&gt;UserBlocksController</title>
<path fill="none" stroke="black" d="M903.271,-1000.67C941.903,-1074.04 1000.12,-1184.58 1041.12,-1262.45"/>
</g>
<!-- UsersController -->
<g id="node25" class="node"><title>UsersController</title>
<path fill="none" stroke="black" d="M269.599,-600.125C269.599,-600.125 462.599,-600.125 462.599,-600.125 468.599,-600.125 474.599,-606.125 474.599,-612.125 474.599,-612.125 474.599,-801.125 474.599,-801.125 474.599,-807.125 468.599,-813.125 462.599,-813.125 462.599,-813.125 269.599,-813.125 269.599,-813.125 263.599,-813.125 257.599,-807.125 257.599,-801.125 257.599,-801.125 257.599,-612.125 257.599,-612.125 257.599,-606.125 263.599,-600.125 269.599,-600.125"/>
<text text-anchor="middle" x="366.099" y="-797.925" font-family="Times,serif" font-size="14.00">UsersController</text>
<polyline fill="none" stroke="black" points="257.599,-790.125 474.599,-790.125 "/>
<text text-anchor="start" x="265.599" y="-774.925" font-family="Times,serif" font-size="14.00">_one_time_conditions_valid_574?</text>
<text text-anchor="start" x="265.599" y="-759.925" font-family="Times,serif" font-size="14.00">choose_type</text>
<text text-anchor="start" x="265.599" y="-744.925" font-family="Times,serif" font-size="14.00">create</text>
<text text-anchor="start" x="265.599" y="-729.925" font-family="Times,serif" font-size="14.00">dashboard</text>
<text text-anchor="start" x="265.599" y="-714.925" font-family="Times,serif" font-size="14.00">destroy</text>
<text text-anchor="start" x="265.599" y="-699.925" font-family="Times,serif" font-size="14.00">edit</text>
<text text-anchor="start" x="265.599" y="-684.925" font-family="Times,serif" font-size="14.00">new</text>
<text text-anchor="start" x="265.599" y="-669.925" font-family="Times,serif" font-size="14.00">show</text>
<text text-anchor="start" x="265.599" y="-654.925" font-family="Times,serif" font-size="14.00">update</text>
<polyline fill="none" stroke="black" points="257.599,-647.125 474.599,-647.125 "/>
<polyline fill="none" stroke="black" points="257.599,-623.125 474.599,-623.125 "/>
<text text-anchor="start" x="265.599" y="-607.925" font-family="Times,serif" font-size="14.00">_layout</text>
</g>
<!-- ApplicationController&#45;&gt;UsersController -->
<g id="edge21" class="edge"><title>ApplicationController&#45;&gt;UsersController</title>
<path fill="none" stroke="black" d="M758.04,-877.969C674.937,-841.639 559.142,-791.017 474.974,-754.222"/>
</g>
<!-- PasswordsController -->
<g id="node19" class="node"><title>PasswordsController</title>
<path fill="none" stroke="black" d="M1661,-1746.5C1661,-1746.5 1775,-1746.5 1775,-1746.5 1781,-1746.5 1787,-1752.5 1787,-1758.5 1787,-1758.5 1787,-1828.5 1787,-1828.5 1787,-1834.5 1781,-1840.5 1775,-1840.5 1775,-1840.5 1661,-1840.5 1661,-1840.5 1655,-1840.5 1649,-1834.5 1649,-1828.5 1649,-1828.5 1649,-1758.5 1649,-1758.5 1649,-1752.5 1655,-1746.5 1661,-1746.5"/>
<text text-anchor="middle" x="1718" y="-1825.3" font-family="Times,serif" font-size="14.00">PasswordsController</text>
<polyline fill="none" stroke="black" points="1649,-1817.5 1787,-1817.5 "/>
<polyline fill="none" stroke="black" points="1649,-1793.5 1787,-1793.5 "/>
<polyline fill="none" stroke="black" points="1649,-1769.5 1787,-1769.5 "/>
<text text-anchor="start" x="1657" y="-1754.3" font-family="Times,serif" font-size="14.00">_layout</text>
</g>
<!-- RegistrationsController -->
<g id="node22" class="node"><title>RegistrationsController</title>
<path fill="none" stroke="black" d="M303,-1746.5C303,-1746.5 436,-1746.5 436,-1746.5 442,-1746.5 448,-1752.5 448,-1758.5 448,-1758.5 448,-1842.5 448,-1842.5 448,-1848.5 442,-1854.5 436,-1854.5 436,-1854.5 303,-1854.5 303,-1854.5 297,-1854.5 291,-1848.5 291,-1842.5 291,-1842.5 291,-1758.5 291,-1758.5 291,-1752.5 297,-1746.5 303,-1746.5"/>
<text text-anchor="middle" x="369.5" y="-1839.3" font-family="Times,serif" font-size="14.00">RegistrationsController</text>
<polyline fill="none" stroke="black" points="291,-1831.5 448,-1831.5 "/>
<polyline fill="none" stroke="black" points="291,-1807.5 448,-1807.5 "/>
<text text-anchor="start" x="299" y="-1792.3" font-family="Times,serif" font-size="14.00">after_sign_in_path_for</text>
<text text-anchor="start" x="299" y="-1777.3" font-family="Times,serif" font-size="14.00">after_sign_out_path_for</text>
<polyline fill="none" stroke="black" points="291,-1769.5 448,-1769.5 "/>
<text text-anchor="start" x="299" y="-1754.3" font-family="Times,serif" font-size="14.00">_layout</text>
</g>
</g>
</svg>
