<?xml version="1.0" encoding="UTF-8" standalone="no"?>
<!DOCTYPE svg PUBLIC "-//W3C//DTD SVG 1.1//EN"
 "http://www.w3.org/Graphics/SVG/1.1/DTD/svg11.dtd">
<!-- Generated by graphviz version 2.30.1 (20130616.2213)
 -->
<!-- Title: models_diagram Pages: 1 -->
<svg width="1409pt" height="374pt"
 viewBox="0.00 0.00 1409.00 374.00" xmlns="http://www.w3.org/2000/svg" xmlns:xlink="http://www.w3.org/1999/xlink">
<g id="graph0" class="graph" transform="scale(1 1) rotate(0) translate(4 370)">
<title>models_diagram</title>
<polygon fill="white" stroke="white" points="-4,5 -4,-370 1406,-370 1406,5 -4,5"/>
<!-- _diagram_info -->
<g id="node1" class="node"><title>_diagram_info</title>
<text text-anchor="start" x="361.5" y="-351.6" font-family="Times,serif" font-size="13.00">Models diagram</text>
<text text-anchor="start" x="361.5" y="-337.6" font-family="Times,serif" font-size="13.00">Date: Jun 16 2013 &#45; 19:01</text>
<text text-anchor="start" x="361.5" y="-323.6" font-family="Times,serif" font-size="13.00">Migration version: 20130430221108</text>
<text text-anchor="start" x="361.5" y="-309.6" font-family="Times,serif" font-size="13.00">Generated by RailRoady 1.1.0</text>
<text text-anchor="start" x="361.5" y="-295.6" font-family="Times,serif" font-size="13.00">http://railroady.prestonlee.com</text>
</g>
<!-- Ability -->
<g id="node2" class="node"><title>Ability</title>
<polygon fill="none" stroke="black" points="635.25,-345 578.75,-345 578.75,-309 635.25,-309 635.25,-345"/>
<text text-anchor="middle" x="607" y="-323.3" font-family="Times,serif" font-size="14.00">Ability</text>
</g>
<!-- Answer -->
<g id="node3" class="node"><title>Answer</title>
<ellipse fill="none" stroke="black" cx="321" cy="-234" rx="39.9464" ry="18"/>
<text text-anchor="middle" x="321" y="-230.3" font-family="Times,serif" font-size="14.00">Answer</text>
</g>
<!-- PreferredAnswer -->
<g id="node24" class="node"><title>PreferredAnswer</title>
<ellipse fill="none" stroke="black" cx="76" cy="-90" rx="75.0904" ry="18"/>
<text text-anchor="middle" x="76" y="-86.3" font-family="Times,serif" font-size="14.00">PreferredAnswer</text>
</g>
<!-- Answer&#45;&gt;PreferredAnswer -->
<g id="edge1" class="edge"><title>Answer&#45;&gt;PreferredAnswer</title>
<path fill="none" stroke="#54d161" d="M273.788,-228.75C212.53,-222.201 110.569,-207.43 86,-180 71.2074,-163.485 69.7914,-137.755 71.4398,-118.2"/>
<ellipse fill="none" stroke="#54d161" cx="277.803" cy="-229.168" rx="4" ry="4"/>
<polygon fill="#54d161" stroke="#54d161" points="71.4623,-118.003 77.0758,-108.583 72.0338,-113.036 72.6053,-108.069 72.6053,-108.069 72.6053,-108.069 72.0338,-113.036 68.1348,-107.554 71.4623,-118.003 71.4623,-118.003"/>
</g>
<!-- Employer -->
<g id="node15" class="node"><title>Employer</title>
<ellipse fill="none" stroke="black" cx="414" cy="-162" rx="48.1437" ry="18"/>
<text text-anchor="middle" x="414" y="-158.3" font-family="Times,serif" font-size="14.00">Employer</text>
</g>
<!-- Answer&#45;&gt;Employer -->
<g id="edge2" class="edge"><title>Answer&#45;&gt;Employer</title>
<path fill="none" stroke="#c4d19f" d="M348.765,-212.101C360.276,-203.437 373.627,-193.389 385.24,-184.647"/>
<polygon fill="#c4d19f" stroke="#c4d19f" points="348.713,-212.141 338.017,-214.559 344.718,-215.148 340.723,-218.155 340.723,-218.155 340.723,-218.155 344.718,-215.148 343.429,-221.75 348.713,-212.141 348.713,-212.141"/>
<polygon fill="#c4d19f" stroke="#c4d19f" points="385.349,-184.565 396.045,-182.147 389.344,-181.558 393.339,-178.552 393.339,-178.552 393.339,-178.552 389.344,-181.558 390.632,-174.956 385.349,-184.565 385.349,-184.565"/>
</g>
<!-- Candidate -->
<g id="node5" class="node"><title>Candidate</title>
<ellipse fill="none" stroke="black" cx="982" cy="-162" rx="48.1437" ry="18"/>
<text text-anchor="middle" x="982" y="-158.3" font-family="Times,serif" font-size="14.00">Candidate</text>
</g>
<!-- Answer&#45;&gt;Candidate -->
<g id="edge3" class="edge"><title>Answer&#45;&gt;Candidate</title>
<path fill="none" stroke="#c88a8d" d="M370.768,-229.936C495.498,-222.047 819.026,-200.236 925,-180 929.108,-179.216 933.343,-178.254 937.562,-177.191"/>
<polygon fill="#c88a8d" stroke="#c88a8d" points="370.71,-229.939 360.447,-226.077 365.72,-230.254 360.73,-230.568 360.73,-230.568 360.73,-230.568 365.72,-230.254 361.012,-235.059 370.71,-229.939 370.71,-229.939"/>
<polygon fill="#c88a8d" stroke="#c88a8d" points="937.654,-177.166 948.481,-178.906 942.481,-175.863 947.309,-174.561 947.309,-174.561 947.309,-174.561 942.481,-175.863 946.136,-170.216 937.654,-177.166 937.654,-177.166"/>
</g>
<!-- BusinessSector -->
<g id="node4" class="node"><title>BusinessSector</title>
<ellipse fill="none" stroke="black" cx="554" cy="-162" rx="67.3907" ry="18"/>
<text text-anchor="middle" x="554" y="-158.3" font-family="Times,serif" font-size="14.00">BusinessSector</text>
</g>
<!-- Concentration -->
<g id="node11" class="node"><title>Concentration</title>
<ellipse fill="none" stroke="black" cx="726" cy="-90" rx="63.5411" ry="18"/>
<text text-anchor="middle" x="726" y="-86.3" font-family="Times,serif" font-size="14.00">Concentration</text>
</g>
<!-- BusinessSector&#45;&gt;Concentration -->
<g id="edge4" class="edge"><title>BusinessSector&#45;&gt;Concentration</title>
<path fill="none" stroke="#0937a5" d="M599.082,-142.653C624.645,-132.249 656.497,-119.286 681.896,-108.949"/>
<polygon fill="#0937a5" stroke="#0937a5" points="598.901,-142.726 587.942,-142.328 594.27,-144.611 589.639,-146.496 589.639,-146.496 589.639,-146.496 594.27,-144.611 591.335,-150.664 598.901,-142.726 598.901,-142.726"/>
<polygon fill="#0937a5" stroke="#0937a5" points="682.026,-108.896 692.985,-109.295 686.657,-107.012 691.289,-105.127 691.289,-105.127 691.289,-105.127 686.657,-107.012 689.592,-100.959 682.026,-108.896 682.026,-108.896"/>
</g>
<!-- Position -->
<g id="node23" class="node"><title>Position</title>
<ellipse fill="none" stroke="black" cx="480" cy="-90" rx="41.394" ry="18"/>
<text text-anchor="middle" x="480" y="-86.3" font-family="Times,serif" font-size="14.00">Position</text>
</g>
<!-- BusinessSector&#45;&gt;Position -->
<g id="edge5" class="edge"><title>BusinessSector&#45;&gt;Position</title>
<path fill="none" stroke="#bedf78" d="M529.019,-137.369C521.019,-129.802 512.178,-121.438 504.232,-113.922"/>
<polygon fill="#bedf78" stroke="#bedf78" points="529.198,-137.539 533.371,-147.68 532.831,-140.975 536.463,-144.411 536.463,-144.411 536.463,-144.411 532.831,-140.975 539.555,-141.142 529.198,-137.539 529.198,-137.539"/>
<polygon fill="#bedf78" stroke="#bedf78" points="503.914,-113.621 499.741,-103.48 500.281,-110.185 496.649,-106.749 496.649,-106.749 496.649,-106.749 500.281,-110.185 493.556,-110.018 503.914,-113.621 503.914,-113.621"/>
</g>
<!-- Experience -->
<g id="node16" class="node"><title>Experience</title>
<ellipse fill="none" stroke="black" cx="592" cy="-90" rx="52.4675" ry="18"/>
<text text-anchor="middle" x="592" y="-86.3" font-family="Times,serif" font-size="14.00">Experience</text>
</g>
<!-- BusinessSector&#45;&gt;Experience -->
<g id="edge6" class="edge"><title>BusinessSector&#45;&gt;Experience</title>
<path fill="none" stroke="#0ad08d" d="M568.113,-135.002C571.355,-129.031 574.8,-122.685 578.035,-116.726"/>
<polygon fill="#0ad08d" stroke="#0ad08d" points="567.97,-135.266 559.244,-141.908 565.584,-139.661 563.199,-144.055 563.199,-144.055 563.199,-144.055 565.584,-139.661 567.154,-146.202 567.97,-135.266 567.97,-135.266"/>
<polygon fill="#0ad08d" stroke="#0ad08d" points="578.115,-116.578 586.841,-109.936 580.5,-112.183 582.886,-107.789 582.886,-107.789 582.886,-107.789 580.5,-112.183 578.931,-105.642 578.115,-116.578 578.115,-116.578"/>
</g>
<!-- Candidate&#45;&gt;Experience -->
<g id="edge7" class="edge"><title>Candidate&#45;&gt;Experience</title>
<path fill="none" stroke="#afa1d0" d="M939.077,-147.412C934.353,-146.152 929.593,-144.982 925,-144 805.754,-118.494 772.471,-132.428 653,-108 648.641,-107.109 644.136,-106.074 639.64,-104.965"/>
<ellipse fill="none" stroke="#afa1d0" cx="943.1" cy="-148.53" rx="4.00001" ry="4.00001"/>
<polygon fill="#afa1d0" stroke="#afa1d0" points="639.553,-104.942 630.997,-98.0836 634.712,-103.691 629.871,-102.44 629.871,-102.44 629.871,-102.44 634.712,-103.691 628.745,-106.797 639.553,-104.942 639.553,-104.942"/>
</g>
<!-- Education -->
<g id="node14" class="node"><title>Education</title>
<ellipse fill="none" stroke="black" cx="994" cy="-18" rx="48.6179" ry="18"/>
<text text-anchor="middle" x="994" y="-14.3" font-family="Times,serif" font-size="14.00">Education</text>
</g>
<!-- Candidate&#45;&gt;Education -->
<g id="edge8" class="edge"><title>Candidate&#45;&gt;Education</title>
<path fill="none" stroke="#496fd6" d="M1012.65,-141.156C1023.39,-132.413 1034.21,-121.127 1040,-108 1046.45,-93.3595 1045.6,-86.9889 1040,-72 1035.89,-60.9892 1028.34,-50.7508 1020.54,-42.2661"/>
<ellipse fill="none" stroke="#496fd6" cx="1009.19" cy="-143.824" rx="4.00002" ry="4.00002"/>
<polygon fill="#496fd6" stroke="#496fd6" points="1020.4,-42.1243 1016.59,-31.8396 1016.89,-38.5598 1013.38,-34.9953 1013.38,-34.9953 1013.38,-34.9953 1016.89,-38.5598 1010.18,-38.151 1020.4,-42.1243 1020.4,-42.1243"/>
</g>
<!-- Degree -->
<g id="node13" class="node"><title>Degree</title>
<ellipse fill="none" stroke="black" cx="994" cy="-90" rx="37.5442" ry="18"/>
<text text-anchor="middle" x="994" y="-86.3" font-family="Times,serif" font-size="14.00">Degree</text>
</g>
<!-- Candidate&#45;&gt;Degree -->
<g id="edge9" class="edge"><title>Candidate&#45;&gt;Degree</title>
<path fill="none" stroke="#87fead" d="M986.686,-133.665C987.562,-128.552 988.478,-123.21 989.354,-118.104"/>
<polygon fill="#87fead" stroke="#87fead" points="986.656,-133.84 980.531,-142.936 985.811,-138.769 984.966,-143.697 984.966,-143.697 984.966,-143.697 985.811,-138.769 989.402,-144.457 986.656,-133.84 986.656,-133.84"/>
<polygon fill="#87fead" stroke="#87fead" points="989.378,-117.961 995.503,-108.865 990.223,-113.032 991.068,-108.104 991.068,-108.104 991.068,-108.104 990.223,-113.032 986.633,-107.344 989.378,-117.961 989.378,-117.961"/>
</g>
<!-- Candidate&#45;&gt;Concentration -->
<g id="edge10" class="edge"><title>Candidate&#45;&gt;Concentration</title>
<path fill="none" stroke="#3cb049" d="M936.03,-147.162C932.302,-146.079 928.59,-145.013 925,-144 876.626,-130.348 821.368,-115.706 781.375,-105.28"/>
<polygon fill="#3cb049" stroke="#3cb049" points="936.267,-147.232 944.596,-154.365 941.065,-148.639 945.863,-150.047 945.863,-150.047 945.863,-150.047 941.065,-148.639 947.13,-145.729 936.267,-147.232 936.267,-147.232"/>
<polygon fill="#3cb049" stroke="#3cb049" points="781.228,-105.241 772.684,-98.3676 776.389,-103.982 771.55,-102.723 771.55,-102.723 771.55,-102.723 776.389,-103.982 770.417,-107.078 781.228,-105.241 781.228,-105.241"/>
</g>
<!-- CandidateApp -->
<g id="node6" class="node"><title>CandidateApp</title>
<ellipse fill="none" stroke="black" cx="873" cy="-90" rx="64.4914" ry="18"/>
<text text-anchor="middle" x="873" y="-86.3" font-family="Times,serif" font-size="14.00">CandidateApp</text>
</g>
<!-- Candidate&#45;&gt;CandidateApp -->
<g id="edge11" class="edge"><title>Candidate&#45;&gt;CandidateApp</title>
<path fill="none" stroke="#b410ab" d="M951.836,-141.629C937.693,-132.546 920.798,-121.696 906.282,-112.374"/>
<ellipse fill="none" stroke="#b410ab" cx="955.518" cy="-143.993" rx="4.00002" ry="4.00002"/>
<polygon fill="#b410ab" stroke="#b410ab" points="906.012,-112.2 900.029,-103.01 901.805,-109.499 897.598,-106.797 897.598,-106.797 897.598,-106.797 901.805,-109.499 895.166,-110.583 906.012,-112.2 906.012,-112.2"/>
</g>
<!-- Certification -->
<g id="node10" class="node"><title>Certification</title>
<ellipse fill="none" stroke="black" cx="1145" cy="-90" rx="57.2927" ry="18"/>
<text text-anchor="middle" x="1145" y="-86.3" font-family="Times,serif" font-size="14.00">Certification</text>
</g>
<!-- Candidate&#45;&gt;Certification -->
<g id="edge12" class="edge"><title>Candidate&#45;&gt;Certification</title>
<path fill="none" stroke="#0fac16" d="M1021.75,-143.931C1046.5,-133.301 1078.29,-119.647 1103.39,-108.869"/>
<polygon fill="#0fac16" stroke="#0fac16" points="1021.47,-144.052 1010.5,-143.863 1016.87,-146.025 1012.28,-147.998 1012.28,-147.998 1012.28,-147.998 1016.87,-146.025 1014.05,-152.132 1021.47,-144.052 1021.47,-144.052"/>
<polygon fill="#0fac16" stroke="#0fac16" points="1103.46,-108.838 1114.43,-109.027 1108.06,-106.865 1112.65,-104.892 1112.65,-104.892 1112.65,-104.892 1108.06,-106.865 1110.88,-100.757 1103.46,-108.838 1103.46,-108.838"/>
</g>
<!-- CandidateAppStatus -->
<g id="node7" class="node"><title>CandidateAppStatus</title>
<ellipse fill="none" stroke="black" cx="829" cy="-162" rx="87.1385" ry="18"/>
<text text-anchor="middle" x="829" y="-158.3" font-family="Times,serif" font-size="14.00">CandidateAppStatus</text>
</g>
<!-- CandidateAppStatus&#45;&gt;CandidateApp -->
<g id="edge13" class="edge"><title>CandidateAppStatus&#45;&gt;CandidateApp</title>
<path fill="none" stroke="#953bf7" d="M843.91,-137.28C848.095,-130.622 852.664,-123.354 856.914,-116.591"/>
<ellipse fill="none" stroke="#953bf7" cx="841.78" cy="-140.668" rx="4.00002" ry="4.00002"/>
<polygon fill="#953bf7" stroke="#953bf7" points="857.125,-116.255 866.257,-110.184 859.786,-112.022 862.447,-107.789 862.447,-107.789 862.447,-107.789 859.786,-112.022 858.637,-105.394 857.125,-116.255 857.125,-116.255"/>
</g>
<!-- CandidatesCertification -->
<g id="node8" class="node"><title>CandidatesCertification</title>
<ellipse fill="none" stroke="black" cx="827" cy="-327" rx="98.212" ry="18"/>
<text text-anchor="middle" x="827" y="-323.3" font-family="Times,serif" font-size="14.00">CandidatesCertification</text>
</g>
<!-- Category -->
<g id="node9" class="node"><title>Category</title>
<ellipse fill="none" stroke="black" cx="302" cy="-162" rx="45.244" ry="18"/>
<text text-anchor="middle" x="302" y="-158.3" font-family="Times,serif" font-size="14.00">Category</text>
</g>
<!-- Question -->
<g id="node25" class="node"><title>Question</title>
<ellipse fill="none" stroke="black" cx="223" cy="-90" rx="44.2946" ry="18"/>
<text text-anchor="middle" x="223" y="-86.3" font-family="Times,serif" font-size="14.00">Question</text>
</g>
<!-- Category&#45;&gt;Question -->
<g id="edge14" class="edge"><title>Category&#45;&gt;Question</title>
<path fill="none" stroke="#2638fa" d="M278.007,-139.741C268.588,-131.394 257.77,-121.809 248.234,-113.359"/>
<ellipse fill="none" stroke="#2638fa" cx="281.08" cy="-142.463" rx="4.00002" ry="4.00002"/>
<polygon fill="#2638fa" stroke="#2638fa" points="248.068,-113.212 243.568,-103.212 244.326,-109.896 240.583,-106.58 240.583,-106.58 240.583,-106.58 244.326,-109.896 237.599,-109.948 248.068,-113.212 248.068,-113.212"/>
</g>
<!-- Concentration&#45;&gt;Education -->
<g id="edge15" class="edge"><title>Concentration&#45;&gt;Education</title>
<path fill="none" stroke="#7649c7" d="M778.655,-75.2468C827.137,-62.5837 898.472,-43.9514 945.566,-31.6506"/>
<ellipse fill="none" stroke="#7649c7" cx="774.727" cy="-76.2727" rx="4.00001" ry="4.00001"/>
<polygon fill="#7649c7" stroke="#7649c7" points="945.848,-31.5772 956.66,-33.4039 950.685,-30.3136 955.523,-29.0499 955.523,-29.0499 955.523,-29.0499 950.685,-30.3136 954.386,-24.696 945.848,-31.5772 945.848,-31.5772"/>
</g>
<!-- CorrectAnswer -->
<g id="node12" class="node"><title>CorrectAnswer</title>
<ellipse fill="none" stroke="black" cx="1012" cy="-327" rx="68.3417" ry="18"/>
<text text-anchor="middle" x="1012" y="-323.3" font-family="Times,serif" font-size="14.00">CorrectAnswer</text>
</g>
<!-- Degree&#45;&gt;Education -->
<g id="edge16" class="edge"><title>Degree&#45;&gt;Education</title>
<path fill="none" stroke="#a87ad6" d="M994,-63.6398C994,-58.0629 994,-52.1319 994,-46.4761"/>
<ellipse fill="none" stroke="#a87ad6" cx="994" cy="-67.6966" rx="4" ry="4"/>
<polygon fill="#a87ad6" stroke="#a87ad6" points="994,-46.1043 998.5,-36.1043 994,-41.1043 994,-36.1043 994,-36.1043 994,-36.1043 994,-41.1043 989.5,-36.1044 994,-46.1043 994,-46.1043"/>
</g>
<!-- Employer&#45;&gt;Position -->
<g id="edge17" class="edge"><title>Employer&#45;&gt;Position</title>
<path fill="none" stroke="#05550a" d="M434.807,-138.932C442.093,-131.204 450.302,-122.498 457.705,-114.646"/>
<ellipse fill="none" stroke="#05550a" cx="432.052" cy="-141.854" rx="4.00002" ry="4.00002"/>
<polygon fill="#05550a" stroke="#05550a" points="457.915,-114.423 468.05,-110.234 461.345,-110.785 464.775,-107.147 464.775,-107.147 464.775,-107.147 461.345,-110.785 461.501,-104.06 457.915,-114.423 457.915,-114.423"/>
</g>
<!-- Employer&#45;&gt;Question -->
<g id="edge18" class="edge"><title>Employer&#45;&gt;Question</title>
<path fill="none" stroke="#7e9cf2" d="M372.959,-145.959C340.828,-134.183 296.345,-117.88 264.18,-106.092"/>
<ellipse fill="none" stroke="#7e9cf2" cx="376.975" cy="-147.43" rx="4.00001" ry="4.00001"/>
<polygon fill="#7e9cf2" stroke="#7e9cf2" points="264.009,-106.03 256.169,-98.3633 259.315,-104.309 254.62,-102.589 254.62,-102.589 254.62,-102.589 259.315,-104.309 253.072,-106.814 264.009,-106.03 264.009,-106.03"/>
</g>
<!-- Employer&#45;&gt;PreferredAnswer -->
<g id="edge19" class="edge"><title>Employer&#45;&gt;PreferredAnswer</title>
<path fill="none" stroke="#c99264" d="M370.256,-147.684C365.463,-146.373 360.64,-145.116 356,-144 335.658,-139.106 219.949,-117.539 143.783,-103.47"/>
<ellipse fill="none" stroke="#c99264" cx="374.406" cy="-148.848" rx="4.00001" ry="4.00001"/>
<polygon fill="#c99264" stroke="#c99264" points="143.61,-103.438 134.593,-97.1975 138.693,-102.53 133.776,-101.623 133.776,-101.623 133.776,-101.623 138.693,-102.53 132.959,-106.048 143.61,-103.438 143.61,-103.438"/>
</g>
<!-- InstitutionType -->
<g id="node19" class="node"><title>InstitutionType</title>
<ellipse fill="none" stroke="black" cx="353" cy="-90" rx="67.3907" ry="18"/>
<text text-anchor="middle" x="353" y="-86.3" font-family="Times,serif" font-size="14.00">InstitutionType</text>
</g>
<!-- Employer&#45;&gt;InstitutionType -->
<g id="edge20" class="edge"><title>Employer&#45;&gt;InstitutionType</title>
<path fill="none" stroke="#59498a" d="M393.091,-137.006C387.032,-130.053 380.41,-122.454 374.325,-115.471"/>
<polygon fill="#59498a" stroke="#59498a" points="393.282,-137.226 396.459,-147.721 396.567,-140.995 399.852,-144.765 399.852,-144.765 399.852,-144.765 396.567,-140.995 403.245,-141.808 393.282,-137.226 393.282,-137.226"/>
<polygon fill="#59498a" stroke="#59498a" points="374.065,-115.173 370.887,-104.677 370.78,-111.403 367.495,-107.633 367.495,-107.633 367.495,-107.633 370.78,-111.403 364.102,-110.59 374.065,-115.173 374.065,-115.173"/>
</g>
<!-- JobFunction -->
<g id="node20" class="node"><title>JobFunction</title>
<ellipse fill="none" stroke="black" cx="592" cy="-18" rx="57.2688" ry="18"/>
<text text-anchor="middle" x="592" y="-14.3" font-family="Times,serif" font-size="14.00">JobFunction</text>
</g>
<!-- Experience&#45;&gt;JobFunction -->
<g id="edge21" class="edge"><title>Experience&#45;&gt;JobFunction</title>
<path fill="none" stroke="#be3a1a" d="M592,-61.6651C592,-56.6867 592,-51.4906 592,-46.5072"/>
<polygon fill="#be3a1a" stroke="#be3a1a" points="592,-61.6966 587.5,-71.6966 592,-66.6966 592,-71.6966 592,-71.6966 592,-71.6966 592,-66.6966 596.5,-71.6967 592,-61.6966 592,-61.6966"/>
<polygon fill="#be3a1a" stroke="#be3a1a" points="592,-46.1043 596.5,-36.1043 592,-41.1043 592,-36.1043 592,-36.1043 592,-36.1043 592,-41.1043 587.5,-36.1044 592,-46.1043 592,-46.1043"/>
</g>
<!-- Importance -->
<g id="node17" class="node"><title>Importance</title>
<ellipse fill="none" stroke="black" cx="148" cy="-162" rx="52.9443" ry="18"/>
<text text-anchor="middle" x="148" y="-158.3" font-family="Times,serif" font-size="14.00">Importance</text>
</g>
<!-- Importance&#45;&gt;Question -->
<g id="edge22" class="edge"><title>Importance&#45;&gt;Question</title>
<path fill="none" stroke="#197b53" d="M171.424,-139.138C180.145,-130.998 190.055,-121.749 198.841,-113.548"/>
<ellipse fill="none" stroke="#197b53" cx="168.319" cy="-142.035" rx="4.00002" ry="4.00002"/>
<polygon fill="#197b53" stroke="#197b53" points="198.905,-113.489 209.286,-109.956 202.56,-110.077 206.215,-106.666 206.215,-106.666 206.215,-106.666 202.56,-110.077 203.145,-103.376 198.905,-113.489 198.905,-113.489"/>
</g>
<!-- Industry -->
<g id="node18" class="node"><title>Industry</title>
<ellipse fill="none" stroke="black" cx="1141" cy="-327" rx="42.3701" ry="18"/>
<text text-anchor="middle" x="1141" y="-323.3" font-family="Times,serif" font-size="14.00">Industry</text>
</g>
<!-- SchoolType -->
<g id="node28" class="node"><title>SchoolType</title>
<ellipse fill="none" stroke="black" cx="257" cy="-18" rx="55.3436" ry="18"/>
<text text-anchor="middle" x="257" y="-14.3" font-family="Times,serif" font-size="14.00">SchoolType</text>
</g>
<!-- InstitutionType&#45;&gt;SchoolType -->
<g id="edge27" class="edge"><title>InstitutionType&#45;&gt;SchoolType</title>
<path fill="none" stroke="black" d="M330.734,-72.7646C315.004,-61.2944 294.038,-46.0068 278.485,-34.6658"/>
</g>
<!-- UniversityType -->
<g id="node29" class="node"><title>UniversityType</title>
<ellipse fill="none" stroke="black" cx="400" cy="-18" rx="68.3417" ry="18"/>
<text text-anchor="middle" x="400" y="-14.3" font-family="Times,serif" font-size="14.00">UniversityType</text>
</g>
<!-- InstitutionType&#45;&gt;UniversityType -->
<g id="edge28" class="edge"><title>InstitutionType&#45;&gt;UniversityType</title>
<path fill="none" stroke="black" d="M364.377,-72.055C371.767,-61.0492 381.359,-46.7636 388.727,-35.789"/>
</g>
<!-- JobTitle -->
<g id="node21" class="node"><title>JobTitle</title>
<ellipse fill="none" stroke="black" cx="1242" cy="-327" rx="39.9464" ry="18"/>
<text text-anchor="middle" x="1242" y="-323.3" font-family="Times,serif" font-size="14.00">JobTitle</text>
</g>
<!-- Message -->
<g id="node22" class="node"><title>Message</title>
<ellipse fill="none" stroke="black" cx="682" cy="-162" rx="42.3701" ry="18"/>
<text text-anchor="middle" x="682" y="-158.3" font-family="Times,serif" font-size="14.00">Message</text>
</g>
<!-- Question&#45;&gt;Answer -->
<g id="edge23" class="edge"><title>Question&#45;&gt;Answer</title>
<path fill="none" stroke="#30cb32" d="M225.587,-116.328C228.537,-135.262 234.796,-161.041 248,-180 257.839,-194.127 272.687,-205.894 286.429,-214.723"/>
<ellipse fill="none" stroke="#30cb32" cx="225.002" cy="-112.121" rx="4.00001" ry="4.00001"/>
<polygon fill="#30cb32" stroke="#30cb32" points="286.699,-214.888 292.893,-223.937 290.968,-217.492 295.236,-220.096 295.236,-220.096 295.236,-220.096 290.968,-217.492 297.58,-216.254 286.699,-214.888 286.699,-214.888"/>
</g>
<!-- Role -->
<g id="node26" class="node"><title>Role</title>
<ellipse fill="none" stroke="black" cx="682" cy="-327" rx="28.3955" ry="18"/>
<text text-anchor="middle" x="682" y="-323.3" font-family="Times,serif" font-size="14.00">Role</text>
</g>
<!-- User -->
<g id="node30" class="node"><title>User</title>
<ellipse fill="none" stroke="black" cx="682" cy="-234" rx="28.3955" ry="18"/>
<text text-anchor="middle" x="682" y="-230.3" font-family="Times,serif" font-size="14.00">User</text>
</g>
<!-- Role&#45;&gt;User -->
<g id="edge24" class="edge"><title>Role&#45;&gt;User</title>
<path fill="none" stroke="#b1ded9" d="M682,-298.549C682,-287.083 682,-273.792 682,-262.339"/>
<polygon fill="#b1ded9" stroke="#b1ded9" points="682,-298.884 677.5,-308.884 682,-303.884 682,-308.884 682,-308.884 682,-308.884 682,-303.884 686.5,-308.884 682,-298.884 682,-298.884"/>
<polygon fill="#b1ded9" stroke="#b1ded9" points="682,-262.04 686.5,-252.04 682,-257.04 682,-252.04 682,-252.04 682,-252.04 682,-257.04 677.5,-252.04 682,-262.04 682,-262.04"/>
</g>
<!-- School -->
<g id="node27" class="node"><title>School</title>
<ellipse fill="none" stroke="black" cx="1082" cy="-234" rx="37.0701" ry="18"/>
<text text-anchor="middle" x="1082" y="-230.3" font-family="Times,serif" font-size="14.00">School</text>
</g>
<!-- CandidatesConcentrationsDegree -->
<g id="node32" class="node"><title>CandidatesConcentrationsDegree</title>
<ellipse fill="none" stroke="black" cx="1183" cy="-162" rx="135.282" ry="18"/>
<text text-anchor="middle" x="1183" y="-158.3" font-family="Times,serif" font-size="14.00">CandidatesConcentrationsDegree</text>
</g>
<!-- School&#45;&gt;CandidatesConcentrationsDegree -->
<g id="edge25" class="edge"><title>School&#45;&gt;CandidatesConcentrationsDegree</title>
<path fill="none" stroke="#a1163a" d="M1109.23,-214.126C1121.88,-205.362 1137.01,-194.871 1150.28,-185.68"/>
<ellipse fill="none" stroke="#a1163a" cx="1105.73" cy="-216.556" rx="4.00002" ry="4.00002"/>
<polygon fill="#a1163a" stroke="#a1163a" points="1150.46,-185.555 1161.24,-183.557 1154.57,-182.707 1158.68,-179.859 1158.68,-179.859 1158.68,-179.859 1154.57,-182.707 1156.11,-176.16 1150.46,-185.555 1150.46,-185.555"/>
</g>
<!-- School&#45;&gt;Candidate -->
<g id="edge26" class="edge"><title>School&#45;&gt;Candidate</title>
<path fill="none" stroke="#073714" d="M1053.38,-212.963C1040.38,-203.864 1025,-193.102 1011.86,-183.901"/>
<polygon fill="#073714" stroke="#073714" points="1053.57,-213.1 1059.18,-222.521 1057.67,-215.967 1061.76,-218.834 1061.76,-218.834 1061.76,-218.834 1057.67,-215.967 1064.34,-215.148 1053.57,-213.1 1053.57,-213.1"/>
<polygon fill="#073714" stroke="#073714" points="1011.78,-183.848 1006.17,-174.427 1007.69,-180.981 1003.59,-178.114 1003.59,-178.114 1003.59,-178.114 1007.69,-180.981 1001.01,-181.8 1011.78,-183.848 1011.78,-183.848"/>
</g>
<!-- User&#45;&gt;Message -->
<g id="edge29" class="edge"><title>User&#45;&gt;Message</title>
<path fill="none" stroke="#2fa480" d="M682,-207.64C682,-202.063 682,-196.132 682,-190.476"/>
<ellipse fill="none" stroke="#2fa480" cx="682" cy="-211.697" rx="4" ry="4"/>
<polygon fill="#2fa480" stroke="#2fa480" points="682,-190.104 686.5,-180.104 682,-185.104 682,-180.104 682,-180.104 682,-180.104 682,-185.104 677.5,-180.104 682,-190.104 682,-190.104"/>
</g>
<!-- User&#45;&gt;Candidate -->
<g id="edge30" class="edge"><title>User&#45;&gt;Candidate</title>
<path fill="none" stroke="#b180a6" d="M716.852,-226.255C764.214,-216.894 851.437,-198.964 925,-180 929.312,-178.888 933.789,-177.669 938.253,-176.409"/>
<ellipse fill="none" stroke="#b180a6" cx="712.688" cy="-227.075" rx="4.00001" ry="4.00001"/>
<ellipse fill="#b180a6" stroke="#b180a6" cx="942.391" cy="-175.219" rx="4.00001" ry="4.00001"/>
</g>
<!-- User&#45;&gt;Employer -->
<g id="edge31" class="edge"><title>User&#45;&gt;Employer</title>
<path fill="none" stroke="#58f968" d="M648.116,-224.357C607.443,-213.954 537.183,-195.899 477,-180 471.352,-178.508 465.424,-176.927 459.557,-175.354"/>
<ellipse fill="none" stroke="#58f968" cx="652.213" cy="-225.404" rx="4.00001" ry="4.00001"/>
<ellipse fill="#58f968" stroke="#58f968" cx="455.49" cy="-174.261" rx="4.00001" ry="4.00001"/>
</g>
<!-- UserBlock -->
<g id="node31" class="node"><title>UserBlock</title>
<ellipse fill="none" stroke="black" cx="1351" cy="-327" rx="50.5427" ry="18"/>
<text text-anchor="middle" x="1351" y="-323.3" font-family="Times,serif" font-size="14.00">UserBlock</text>
</g>
</g>
</svg>
